<?xml version="1.0" encoding="iso-8859-1"?>
<!-- Generator: Adobe Illustrator 19.0.0, SVG Export Plug-In . SVG Version: 6.00 Build 0)  -->
<svg version="1.1" id="Capa_1" xmlns="http://www.w3.org/2000/svg" xmlns:xlink="http://www.w3.org/1999/xlink" x="0px" y="0px"
	 viewBox="0 0 441.12 441.12" style="enable-background:new 0 0 441.12 441.12;" xml:space="preserve">
<linearGradient id="SVGID_1_" gradientUnits="userSpaceOnUse" x1="-64.305" y1="560.7195" x2="-64.305" y2="621.4335" gradientTransform="matrix(8 0 0 -8 734.9998 4950.9404)">
	<stop  offset="0" style="stop-color:#006DF0"/>
	<stop  offset="1" style="stop-color:#00E7F0"/>
</linearGradient>
<path style="fill:url(#SVGID_1_);" d="M441.12,71.985c-0.017-39.765-32.267-71.986-72.031-71.969
	c-19.057,0.008-37.334,7.572-50.825,21.033l-20.056,20.056H24c-13.255,0-24,10.745-24,24c0,0,0,0,0,0v352c0,13.255,10.745,24,24,24
	h352c13.255,0,24-10.745,24-24V142.896l20.056-20.056C433.59,109.384,441.175,91.07,441.12,71.985L441.12,71.985z M408.744,32.361
	c19.647,19.692,21.884,50.812,5.256,73.112l-78.4-78.4C357.928,10.483,389.035,12.732,408.744,32.361L408.744,32.361z M182,326.073
	l-75.336,8.368l8.368-75.336L182,326.073z M384,158.897v258.208c0,4.418-3.582,8-8,8H24c-4.418,0-8-3.582-8-8v-352
	c0-4.418,3.582-8,8-8h258.208L103.304,236.009c-0.056,0.056-0.08,0.144-0.136,0.2c-1.213,1.247-1.983,2.857-2.192,4.584
	L89.664,342.609c-0.495,4.39,2.663,8.351,7.054,8.846c0.293,0.033,0.588,0.05,0.882,0.05c0.297,0.001,0.594-0.017,0.888-0.056
	l101.816-11.312c1.727-0.209,3.337-0.979,4.584-2.192c0.056-0.056,0.144-0.08,0.2-0.136L384,158.897z M199.44,320.833l-79.2-79.2
	L323.92,38.017l79.2,79.2L199.44,320.833z"/>
<g>
</g>
<g>
</g>
<g>
</g>
<g>
</g>
<g>
</g>
<g>
</g>
<g>
</g>
<g>
</g>
<g>
</g>
<g>
</g>
<g>
</g>
<g>
</g>
<g>
</g>
<g>
</g>
<g>
</g>
</svg>
